HIERARCHY
ROOT Hips
{
	OFFSET 0.00000 0.00000 0.00000
	CHANNELS 6 Xposition Yposition Zposition Zrotation Yrotation Xrotation 
	JOINT LHipJoint
	{
		OFFSET 0 0 0
		CHANNELS 3 Zrotation Yrotation Xrotation
		JOINT LeftUpLeg
		{
			OFFSET 1.57338 -1.94743 0.52196
			CHANNELS 3 Zrotation Yrotation Xrotation
			JOINT LeftLeg
			{
				OFFSET 2.60333 -7.15259 0.00000
				CHANNELS 3 Zrotation Yrotation Xrotation
				JOINT LeftFoot
				{
					OFFSET 2.77855 -7.63400 0.00000
					CHANNELS 3 Zrotation Yrotation Xrotation
					JOINT LeftToeBase
					{
						OFFSET 0.19847 -0.54529 2.28466
						CHANNELS 3 Zrotation Yrotation Xrotation
						End Site
						{
							OFFSET 0.00000 -0.00000 1.17993
						}
					}
				}
			}
		}
	}
	JOINT RHipJoint
	{
		OFFSET 0 0 0
		CHANNELS 3 Zrotation Yrotation Xrotation
		JOINT RightUpLeg
		{
			OFFSET -1.61527 -1.94743 0.52196
			CHANNELS 3 Zrotation Yrotation Xrotation
			JOINT RightLeg
			{
				OFFSET -2.53829 -6.97390 0.00000
				CHANNELS 3 Zrotation Yrotation Xrotation
				JOINT RightFoot
				{
					OFFSET -2.80762 -7.71387 0.00000
					CHANNELS 3 Zrotation Yrotation Xrotation
					JOINT RightToeBase
					{
						OFFSET -0.30536 -0.83898 2.28801
						CHANNELS 3 Zrotation Yrotation Xrotation
						End Site
						{
							OFFSET -0.00000 -0.00000 1.21323
						}
					}
				}
			}
		}
	}
	JOINT LowerBack
	{
		OFFSET 0 0 0
		CHANNELS 3 Zrotation Yrotation Xrotation
		JOINT Spine
		{
			OFFSET -0.04381 1.99497 -0.19778
			CHANNELS 3 Zrotation Yrotation Xrotation
			JOINT Spine1
			{
				OFFSET -0.01959 2.01295 -0.04372
				CHANNELS 3 Zrotation Yrotation Xrotation
				JOINT Neck
				{
					OFFSET 0 0 0
					CHANNELS 3 Zrotation Yrotation Xrotation
					JOINT Neck1
					{
						OFFSET -0.05459 1.76913 0.09708
						CHANNELS 3 Zrotation Yrotation Xrotation
						JOINT Head
						{
							OFFSET 0.09461 1.77368 -0.11172
							CHANNELS 3 Zrotation Yrotation Xrotation
							End Site
							{
								OFFSET 0.03812 1.78157 -0.04834
							}
						}
					}
				}
				JOINT LeftShoulder
				{
					OFFSET 0 0 0
					CHANNELS 3 Zrotation Yrotation Xrotation
					JOINT LeftArm
					{
						OFFSET 3.50922 1.24034 -0.28866
						CHANNELS 3 Zrotation Yrotation Xrotation
						JOINT LeftForeArm
						{
							OFFSET 5.40188 -0.00000 0.00000
							CHANNELS 3 Zrotation Yrotation Xrotation
							JOINT LeftHand
							{
								OFFSET 3.68559 -0.00000 0.00000
								CHANNELS 3 Zrotation Yrotation Xrotation
								JOINT LeftFingerBase
								{
									OFFSET 0 0 0
									CHANNELS 3 Zrotation Yrotation Xrotation
									JOINT LeftHandIndex1
									{
										OFFSET 0.61753 -0.00000 0.00000
										CHANNELS 3 Zrotation Yrotation Xrotation
										End Site
										{
											OFFSET 0.49787 -0.00000 0.00000
										}
									}
								}
								JOINT LThumb
								{
									OFFSET 0 0 0
									CHANNELS 3 Zrotation Yrotation Xrotation
									End Site
									{
										OFFSET 0.50547 -0.00000 0.50547
									}
								}
							}
						}
					}
				}
				JOINT RightShoulder
				{
					OFFSET 0 0 0
					CHANNELS 3 Zrotation Yrotation Xrotation
					JOINT RightArm
					{
						OFFSET -2.95373 1.39649 -0.27346
						CHANNELS 3 Zrotation Yrotation Xrotation
						JOINT RightForeArm
						{
							OFFSET -6.10670 -0.00000 -0.00000
							CHANNELS 3 Zrotation Yrotation Xrotation
							JOINT RightHand
							{
								OFFSET -3.63052 -0.00000 0.00000
								CHANNELS 3 Zrotation Yrotation Xrotation
								JOINT RightFingerBase
								{
									OFFSET 0 0 0
									CHANNELS 3 Zrotation Yrotation Xrotation
									JOINT RightHandIndex1
									{
										OFFSET -0.58385 -0.00000 0.00000
										CHANNELS 3 Zrotation Yrotation Xrotation
										End Site
										{
											OFFSET -0.47071 -0.00000 0.00000
										}
									}
								}
								JOINT RThumb
								{
									OFFSET 0 0 0
									CHANNELS 3 Zrotation Yrotation Xrotation
									End Site
									{
										OFFSET -0.47790 -0.00000 0.47790
									}
								}
							}
						}
					}
				}
			}
		}
	}
}
MOTION
Frames: 15
Frame Time: 0.033333
-2.58 17.48 2.09 460.64 -97.17 -454.31 0.00 0.00 0.00 18.02 -11.47 -40.84 6.17 14.59 45.65 -0.07 7.36 3.26 0.43 -4.23 -11.72 0.00 0.00 0.00 11.10 22.95 -3.01 -5.19 -13.59 41.62 -0.58 2.74 -13.72 -3.07 10.81 -31.65 -5.74 5.14 14.22 -6.84 5.19 4.10 -4.88 2.40 -3.47 -4.87 8.23 -4.26 13.72 9.06 18.39 5.58 4.88 5.27 0.00 -0.00 0.00 -84.87 10.48 12.77 149.74 -41.12 -108.42 -0.00 0.00 -59.38 -9.54 22.56 -3.69 -7.12 0.00 -0.00 -36.86 48.78 -3.93 0.00 -0.00 0.00 77.33 0.41 36.04 -100.10 59.61 -68.73 0.00 -0.00 -51.20 -3.54 8.23 -0.51 7.12 -0.00 -0.00 16.75 -21.84 9.73
-2.83 17.13 2.24 422.49 -99.48 -416.94 0.00 0.00 0.00 21.56 -12.55 -34.03 5.39 13.81 42.47 -0.11 9.52 4.52 0.22 -3.02 -8.35 0.00 0.00 0.00 9.93 22.36 -0.37 -4.07 -12.25 36.64 -0.64 11.15 -15.19 -2.81 10.39 -30.24 -5.39 5.57 13.93 -7.90 5.67 3.28 -6.34 2.62 -4.02 -2.78 9.60 -4.65 12.70 10.63 20.38 5.11 5.69 6.01 0.00 0.00 0.00 -92.17 19.07 -1.43 142.84 -46.30 -103.64 -0.00 0.00 -65.91 -15.47 23.77 -6.37 -7.12 0.00 -0.00 -42.58 48.84 -4.85 0.00 0.00 0.00 80.11 -0.64 40.20 -89.09 60.00 -59.21 0.00 -0.00 -51.38 -4.93 7.61 -0.65 7.12 -0.00 -0.00 15.84 -22.41 8.94
-3.11 16.91 2.44 400.19 -104.90 -395.36 0.00 0.00 0.00 22.44 -13.35 -25.26 5.12 13.52 41.36 -0.27 9.21 -1.99 2.06 -8.99 -25.77 0.00 0.00 0.00 8.29 22.43 -0.91 -3.77 -11.85 35.20 -0.11 16.69 -12.76 -2.26 9.39 -27.04 -5.95 6.31 13.29 -9.18 6.38 2.31 -7.55 2.93 -4.57 -2.53 11.14 -3.83 13.16 12.27 22.91 5.35 6.45 6.52 -0.00 -0.00 0.00 -92.60 19.34 -12.06 121.12 -56.01 -86.59 -0.00 0.00 -81.97 -12.24 21.52 -4.55 -7.12 0.00 -0.00 -38.45 47.53 -2.80 -0.00 -0.00 0.00 83.14 -2.50 43.23 -74.10 59.02 -46.28 0.00 -0.00 -51.70 -6.87 5.25 -0.63 7.12 -0.00 -0.00 14.69 -24.68 7.45
-3.31 16.90 2.70 399.83 -106.71 -394.01 0.00 0.00 0.00 22.90 -16.08 -24.38 5.74 14.18 43.95 -0.42 11.64 -6.56 2.65 -10.11 -29.32 0.00 0.00 0.00 7.69 24.19 -3.01 -4.11 -12.30 36.81 0.34 16.77 -8.05 -1.77 8.37 -23.83 -7.56 5.02 12.47 -9.61 4.47 2.45 -6.71 1.97 -4.22 -1.74 13.52 -4.81 11.11 15.39 27.53 5.10 7.69 8.24 -0.00 0.00 0.00 -85.14 11.45 -15.54 83.54 -59.84 -54.41 -0.00 0.00 -98.54 -8.03 8.25 -1.16 -7.12 0.00 -0.00 -28.85 36.67 6.60 -0.00 0.00 0.00 83.83 -4.67 45.69 -66.03 57.71 -39.40 0.00 -0.00 -52.84 -4.75 5.08 -0.42 7.12 -0.00 -0.00 16.26 -24.85 8.24
-3.39 16.99 3.04 412.42 -104.46 -405.77 0.00 0.00 0.00 23.99 -17.76 -32.58 7.36 15.63 50.23 -0.35 10.62 -1.79 2.04 -8.94 -25.62 0.00 0.00 0.00 6.97 24.99 -5.42 -4.83 -13.19 40.09 0.55 13.44 1.47 -1.15 6.80 -19.12 -9.03 3.30 15.01 -9.78 1.66 3.86 -5.69 0.54 -4.30 -0.68 15.30 -5.03 10.41 17.62 29.38 5.01 8.66 8.96 0.00 -0.00 0.00 -75.94 0.10 -11.51 73.55 -58.95 -45.80 -0.00 0.00 -95.15 -2.26 22.83 -0.88 -7.12 0.00 -0.00 -30.70 50.11 -4.22 0.00 -0.00 0.00 83.52 -7.27 44.41 -62.39 56.91 -36.33 0.00 -0.00 -56.52 -1.30 4.64 -0.10 7.12 -0.00 -0.00 18.81 -25.26 9.48
-3.46 16.96 3.45 435.78 -103.76 -428.00 0.00 0.00 0.00 25.46 -15.80 -42.98 8.66 16.59 54.91 0.02 -0.19 2.86 1.81 -8.47 -24.15 0.00 0.00 0.00 6.83 24.75 -7.63 -5.61 -14.04 43.41 0.15 6.93 1.85 -1.26 7.11 -20.04 -9.14 2.61 17.84 -8.46 0.60 5.70 -4.02 0.00 -3.88 -1.03 15.56 -5.41 10.46 18.00 29.37 5.12 8.81 8.96 -0.00 0.00 0.00 -70.32 -17.69 -1.04 91.29 -59.99 -61.12 -0.00 0.00 -81.15 -11.00 25.54 -4.79 -7.12 0.00 -0.00 -40.13 50.96 -6.84 -0.00 0.00 0.00 80.81 -10.60 41.69 -61.33 56.65 -35.45 0.00 -0.00 -61.85 3.62 5.14 0.33 7.12 -0.00 -0.00 22.20 -24.72 11.75
-3.66 16.72 3.86 462.45 -106.30 -452.39 0.00 0.00 0.00 25.63 -14.45 -51.51 8.18 16.25 53.21 -0.10 -5.67 0.43 1.21 -6.98 -19.66 0.00 0.00 0.00 7.98 23.67 -7.31 -5.67 -14.10 43.65 -0.06 -4.34 -8.16 -1.01 6.40 -17.95 -5.96 2.25 17.82 -5.97 1.08 5.89 -3.19 0.33 -3.66 -2.67 14.52 -2.27 11.95 16.17 30.11 5.47 7.87 8.43 0.00 -0.00 0.00 -69.35 -37.71 17.43 97.06 -59.81 -66.11 -0.00 0.00 -71.91 -11.77 26.10 -5.24 -7.12 0.00 -0.00 -41.20 51.27 -7.44 0.00 -0.00 0.00 78.27 -13.81 40.37 -57.11 55.49 -31.94 0.00 -0.00 -66.99 5.40 4.13 0.39 7.12 -0.00 -0.00 23.63 -25.61 12.10
-3.97 16.47 4.40 478.83 -106.58 -468.62 0.00 0.00 0.00 20.31 -16.55 -53.84 8.41 16.41 54.02 0.18 -2.60 -7.51 1.15 -6.82 -19.19 0.00 0.00 0.00 5.72 22.61 -2.08 -4.75 -13.10 39.74 -0.23 -3.95 -11.31 -1.06 6.54 -18.37 -4.72 2.36 17.10 -4.73 1.67 6.31 -2.64 0.64 -2.83 -5.29 13.71 -1.09 13.86 14.52 32.72 6.51 6.92 8.82 0.00 0.00 0.00 -74.85 -46.57 33.15 101.95 -59.45 -70.33 -0.00 0.00 -68.76 -14.01 24.72 -5.95 -7.12 0.00 -0.00 -42.06 49.81 -5.93 0.00 0.00 0.00 77.28 -10.59 42.50 -50.51 53.20 -26.58 0.00 -0.00 -67.06 3.36 4.12 0.24 7.12 -0.00 -0.00 22.21 -25.68 11.21
-4.20 16.18 4.88 487.34 -105.69 -479.03 0.00 0.00 0.00 17.08 -19.07 -56.20 10.52 17.69 61.22 0.21 -4.94 -8.31 1.55 -7.85 -22.25 0.00 0.00 0.00 3.78 22.20 2.87 -4.77 -13.12 39.81 -0.34 -1.19 -11.54 -1.19 6.93 -19.51 -4.02 4.59 17.93 -3.88 4.67 6.44 -2.77 2.11 -3.09 -4.44 11.87 1.93 13.70 11.88 31.84 5.99 5.77 8.33 0.00 -0.00 0.00 -87.07 -48.54 52.25 105.27 -59.10 -73.19 -0.00 0.00 -65.30 -14.28 24.31 -5.98 -7.12 0.00 -0.00 -41.99 49.45 -5.49 0.00 -0.00 0.00 80.46 -5.17 40.62 -50.51 53.20 -26.58 0.00 -0.00 -70.24 2.53 4.13 0.18 7.12 -0.00 -0.00 21.62 -25.69 10.86
-4.42 16.05 5.15 486.17 -104.57 -479.17 0.00 0.00 0.00 13.74 -16.36 -55.97 11.59 18.21 64.69 0.25 -7.56 -9.64 1.05 -6.52 -18.31 0.00 0.00 0.00 4.05 21.09 2.50 -6.11 -14.54 45.44 -0.33 -0.07 -10.88 -1.06 6.54 -18.35 -4.00 7.49 15.87 -2.39 8.71 6.80 -1.78 4.10 -1.78 -5.49 10.10 2.97 14.80 9.33 31.46 6.41 4.61 8.11 0.00 -0.00 0.00 -95.10 -43.34 63.80 110.26 -58.39 -77.45 -0.00 0.00 -63.60 -15.52 24.20 -6.49 -7.12 0.00 -0.00 -42.92 49.17 -5.32 0.00 -0.00 0.00 83.35 7.69 40.86 -52.57 53.98 -28.24 0.00 -0.00 -69.77 1.39 3.21 0.08 7.12 -0.00 -0.00 20.97 -26.57 10.02
-4.47 16.10 5.29 491.23 -103.56 -487.09 0.00 0.00 0.00 9.65 -15.27 -52.76 11.54 18.19 64.53 0.11 -9.45 -8.37 0.91 -6.09 -17.05 0.00 0.00 0.00 4.89 15.92 1.00 -8.03 -16.14 52.69 -0.15 3.44 -6.90 -0.99 6.35 -17.79 -2.62 8.76 17.71 -2.34 10.42 7.45 -2.97 4.94 -1.80 -4.37 9.27 2.83 14.97 8.21 31.04 6.26 4.28 8.18 0.00 -0.00 0.00 -93.60 -36.41 65.35 114.92 -57.52 -81.40 -0.00 0.00 -62.54 -17.41 24.66 -7.45 -7.12 0.00 -0.00 -44.78 49.23 -5.72 0.00 -0.00 0.00 89.77 27.03 43.59 -53.83 54.43 -29.26 0.00 -0.00 -66.15 1.25 4.82 0.10 7.12 -0.00 -0.00 20.59 -25.06 10.60
-4.38 16.30 5.24 502.58 -103.06 -498.55 0.00 0.00 0.00 5.69 -13.78 -52.07 10.58 17.73 61.42 -0.10 -9.87 -4.97 0.77 -5.62 -15.68 0.00 0.00 0.00 5.39 9.19 -4.78 -9.24 -16.96 56.92 0.11 6.03 0.73 -1.51 7.76 -21.97 -3.03 9.88 18.17 -1.89 11.79 7.78 -2.60 5.60 -1.80 -3.76 8.49 3.26 14.90 7.41 29.23 5.98 4.00 7.60 -0.00 0.00 0.00 -92.30 -32.28 66.51 114.99 -57.50 -81.46 -0.00 0.00 -61.43 -16.10 23.83 -6.65 -7.12 0.00 -0.00 -43.13 48.79 -4.88 -0.00 0.00 0.00 95.70 45.22 47.40 -60.38 56.41 -34.65 0.00 -0.00 -69.02 2.18 4.39 0.17 7.12 -0.00 -0.00 21.33 -25.45 10.82
-4.26 16.65 5.17 522.08 -104.08 -517.18 0.00 0.00 0.00 0.54 -14.33 -50.55 8.76 16.65 55.24 -0.27 -9.62 0.49 0.49 -4.48 -12.43 0.00 0.00 0.00 5.49 2.15 -9.01 -9.67 -17.22 58.39 0.06 -6.51 -7.61 -1.71 8.24 -23.45 -4.59 10.48 18.09 -1.68 12.35 8.02 -1.67 5.84 -1.86 -3.63 7.22 5.02 15.21 5.85 27.25 5.84 3.26 6.78 -0.00 0.00 0.00 -91.84 -29.51 67.78 114.93 -57.52 -81.41 -0.00 0.00 -59.78 -15.96 23.35 -6.47 -7.12 0.00 -0.00 -42.68 48.44 -4.37 -0.00 0.00 0.00 99.97 58.17 51.78 -65.22 57.55 -38.72 0.00 -0.00 -74.16 5.47 5.88 0.56 7.12 -0.00 -0.00 23.34 -24.00 12.90
-4.15 17.19 5.12 529.72 -108.67 -522.29 0.00 0.00 0.00 -1.03 -15.76 -49.49 6.28 14.69 46.10 -0.17 -9.01 8.98 0.18 -2.72 -7.51 0.00 0.00 0.00 9.03 0.60 -13.07 -9.54 -17.14 57.93 1.52 -21.42 -11.35 -0.72 5.42 -15.10 -2.46 9.05 16.79 -2.28 11.01 6.72 -3.03 5.31 -2.07 -2.87 6.30 7.47 16.00 4.46 26.60 5.85 2.62 6.29 -0.00 0.00 0.00 -89.80 -26.03 66.52 116.60 -57.15 -82.82 -0.00 0.00 -59.69 -15.13 21.52 -5.66 -7.12 0.00 -0.00 -40.79 47.11 -2.54 -0.00 0.00 0.00 100.62 61.99 54.56 -66.92 57.89 -40.16 0.00 -0.00 -71.74 4.10 8.44 0.60 7.12 -0.00 -0.00 21.98 -21.66 13.31
-4.00 17.70 5.08 532.27 -111.70 -523.32 0.00 0.00 0.00 -0.39 -17.04 -46.92 4.04 12.22 36.50 0.65 -5.22 18.04 0.02 -0.82 -2.25 0.00 0.00 0.00 12.29 3.40 -13.42 -8.25 -16.30 53.44 3.82 -32.26 -16.68 -0.07 -1.75 4.81 -0.57 7.86 15.12 -2.78 9.86 6.47 -4.10 4.82 -1.10 -2.32 5.38 7.17 15.82 3.48 25.14 5.63 2.18 5.99 -0.00 -0.00 0.00 -88.25 -24.33 64.63 120.34 -56.22 -85.94 -0.00 0.00 -59.87 -14.20 21.75 -5.36 -7.12 0.00 -0.00 -40.19 47.43 -2.86 -0.00 -0.00 0.00 97.81 59.52 53.50 -66.27 57.76 -39.60 0.00 -0.00 -70.78 4.03 8.83 0.62 7.12 -0.00 -0.00 21.87 -21.29 13.43
